<svg width="26" height="26" viewBox="0 0 26 26" fill="none" xmlns="http://www.w3.org/2000/svg">
<path d="M12.6618 24.6617C19.2892 24.6617 24.6618 19.2892 24.6618 12.6617C24.6618 6.03433 19.2892 0.661743 12.6618 0.661743C6.03434 0.661743 0.661758 6.03433 0.661758 12.6617C0.661758 19.2892 6.03434 24.6617 12.6618 24.6617Z" stroke="black" stroke-width="1.32353" stroke-miterlimit="10"/>
<path d="M12.662 6.30859C14.4039 6.30859 14.6301 6.30874 15.3075 6.34082C15.9849 6.37291 16.437 6.46946 16.8563 6.62988C17.2755 6.79032 17.6628 7.04646 17.9852 7.36719C18.3077 7.68796 18.5651 8.07325 18.7264 8.49023C18.8877 8.9073 18.9852 9.35661 19.0175 10.0303C19.0497 10.704 19.0497 10.9289 19.0497 12.6611C19.0497 14.3938 19.0497 14.6192 19.0175 15.293C18.9852 15.9665 18.8877 16.416 18.7264 16.833C18.4038 17.699 17.7269 18.3725 16.8563 18.6934C16.437 18.8538 15.9849 18.9503 15.3075 18.9824C14.6301 19.0145 14.4039 19.0146 12.662 19.0146C10.9206 19.0146 10.6946 19.0145 10.0175 18.9824C9.34004 18.9503 8.88798 18.8538 8.46863 18.6934C8.04944 18.533 7.6622 18.2768 7.33972 17.9561C7.01719 17.6353 6.75883 17.25 6.59753 16.833C6.43628 16.416 6.33977 15.9665 6.3075 15.293C6.27524 14.6192 6.27527 14.3938 6.27527 12.6611C6.27527 10.9289 6.27524 10.704 6.3075 10.0303C6.33976 9.35661 6.43626 8.9073 6.59753 8.49023C6.75883 8.07314 7.01715 7.68803 7.33972 7.36719C7.66221 7.04645 8.04943 6.7903 8.46863 6.62988C8.88798 6.46946 9.34004 6.37291 10.0175 6.34082C10.6946 6.30875 10.9206 6.30859 12.662 6.30859ZM12.662 7.46387C10.9528 7.46387 10.7591 7.46402 10.0819 7.49609C9.46918 7.52817 9.11437 7.62447 8.88855 7.7207C8.59835 7.81692 8.37207 7.97673 8.14636 8.20117C7.92056 8.39368 7.75876 8.65069 7.66199 8.93945C7.56521 9.16405 7.46866 9.48525 7.4364 10.127C7.40415 10.8006 7.40417 10.9932 7.40417 12.6934C7.40417 14.3939 7.40414 14.5869 7.4364 15.2607C7.46865 15.8698 7.56529 16.2227 7.66199 16.4473C7.75876 16.736 7.92056 16.9609 8.14636 17.1855C8.33991 17.4101 8.59824 17.5707 8.88855 17.667C9.11434 17.7632 9.43709 17.8595 10.0819 17.8916C10.7591 17.9237 10.9528 17.9238 12.662 17.9238C14.3717 17.9238 14.5656 17.9237 15.243 17.8916C15.8558 17.8595 16.2106 17.7632 16.4364 17.667C16.9848 17.4424 17.4362 17.0248 17.662 16.4473C17.7587 16.2227 17.8563 15.9021 17.8885 15.2607C17.9208 14.5869 17.9208 14.3939 17.9208 12.6934C17.9208 10.9932 17.9208 10.8006 17.8885 10.127C17.8563 9.51733 17.7588 9.16405 17.662 8.93945C17.5652 8.65081 17.4043 8.4257 17.1786 8.20117C16.9851 7.97669 16.7266 7.81693 16.4364 7.7207C16.2106 7.62445 15.8559 7.4961 15.243 7.49609C14.5656 7.46401 14.3717 7.46387 12.662 7.46387ZM12.662 9.48535C14.4362 9.48535 15.8563 10.8974 15.8563 12.6621C15.8561 14.4266 14.436 15.8379 12.662 15.8379C10.8881 15.8377 9.46889 14.3944 9.46863 12.6621C9.46863 10.8975 10.888 9.48555 12.662 9.48535ZM12.662 10.6084C11.5331 10.6086 10.5975 11.5072 10.5975 12.6621C10.5978 13.7848 11.5333 14.7146 12.662 14.7148C13.7909 14.7148 14.7262 13.7849 14.7264 12.6621C14.7264 11.5391 13.791 10.6084 12.662 10.6084ZM16.1786 8.84375C16.7129 8.84387 17.1462 9.27425 17.1464 9.80566C17.1464 10.3372 16.713 10.7684 16.1786 10.7686C15.6441 10.7686 15.2108 10.3373 15.2108 9.80566C15.211 9.27417 15.6442 8.84375 16.1786 8.84375Z" fill="black"/>
</svg>
