<svg width="26" height="26" viewBox="0 0 26 26" fill="none" xmlns="http://www.w3.org/2000/svg">
<path d="M12.6618 24.6617C19.2892 24.6617 24.6618 19.2892 24.6618 12.6617C24.6618 6.03433 19.2892 0.661743 12.6618 0.661743C6.03436 0.661743 0.661774 6.03433 0.661774 12.6617C0.661774 19.2892 6.03436 24.6617 12.6618 24.6617Z" stroke="black" stroke-width="1.32353" stroke-miterlimit="10"/>
<path d="M8.96313 11.082V17.8359H7.26489V11.082H8.96313Z" fill="black" stroke="black" stroke-width="0.882353"/>
<path d="M8.17758 7.48828C8.53557 7.48828 8.7551 7.59293 8.89536 7.73242C9.03805 7.87436 9.14314 8.09794 9.18637 8.41797C9.18039 8.61941 9.09932 8.7948 8.95102 8.92578C8.79466 9.06375 8.54046 9.17285 8.17758 9.17285C7.81506 9.17276 7.56895 9.0639 7.41684 8.91992C7.26685 8.77787 7.16792 8.56338 7.16782 8.2666C7.16782 8.05515 7.25091 7.87046 7.40512 7.73438C7.56142 7.59647 7.81494 7.48837 8.17758 7.48828Z" fill="black" stroke="black" stroke-width="0.882353"/>
<path d="M15.5975 10.9856C16.3343 10.9856 16.9324 11.229 17.3505 11.6936C17.773 12.1632 18.0594 12.912 18.0594 14.009V17.8352H16.4579V14.2336C16.4578 13.7032 16.3741 13.1827 16.1102 12.7834C15.8245 12.3514 15.3704 12.1243 14.7909 12.1243C13.9219 12.1243 13.3557 12.6851 13.0731 13.2092C12.9529 13.3631 12.9249 13.5464 12.913 13.6575C12.8978 13.7988 12.8983 13.9709 12.8983 14.1379V17.8352H11.2001V11.0813H12.8983V13.3762L13.7186 11.9875C13.8615 11.7461 14.0469 11.5028 14.326 11.3167C14.601 11.1333 14.9979 10.9856 15.5975 10.9856Z" fill="black" stroke="black" stroke-width="0.882353"/>
</svg>
