<svg width="26" height="26" viewBox="0 0 26 26" fill="none" xmlns="http://www.w3.org/2000/svg">
<path d="M12.6618 24.6617C19.2892 24.6617 24.6618 19.2892 24.6618 12.6617C24.6618 6.03433 19.2892 0.661743 12.6618 0.661743C6.03436 0.661743 0.661774 6.03433 0.661774 12.6617C0.661774 19.2892 6.03436 24.6617 12.6618 24.6617Z" stroke="black" stroke-width="1.32353" stroke-miterlimit="10"/>
<path d="M14.2749 6.78247C14.6564 6.78247 15.0348 6.81244 15.352 6.84399C15.4491 6.85365 15.5474 6.86342 15.6401 6.87329V8.05005H14.8559C14.3386 8.05005 13.9055 8.1791 13.6186 8.51196C13.3439 8.8307 13.2856 9.24472 13.2856 9.61353V11.3059H15.5727L15.3764 12.6702H13.2856V18.509H11.6841V12.7659H9.65182V11.4026H11.6841V9.26099C11.6841 8.41354 11.9552 7.80925 12.3813 7.41431C12.8123 7.01493 13.4529 6.78248 14.2749 6.78247Z" fill="black" stroke="black" stroke-width="0.882353"/>
</svg>
