<svg width="26" height="26" viewBox="0 0 26 26" fill="none" xmlns="http://www.w3.org/2000/svg">
<path d="M12.6618 24.6617C19.2892 24.6617 24.6618 19.2892 24.6618 12.6617C24.6618 6.03433 19.2892 0.661743 12.6618 0.661743C6.03434 0.661743 0.661758 6.03433 0.661758 12.6617C0.661758 19.2892 6.03434 24.6617 12.6618 24.6617Z" stroke="black" stroke-width="1.32353" stroke-miterlimit="10"/>
<path d="M19.4036 12.6617C19.4036 12.6617 19.4036 10.4478 19.1778 9.42106C19.0488 8.84352 18.5972 8.36224 18.0165 8.26598C16.9843 8.04138 12.6617 8.04138 12.6617 8.04138C12.6617 8.04138 8.37139 8.04138 7.30687 8.26598C6.72623 8.39432 6.27461 8.84352 6.14558 9.42106C5.91977 10.4799 5.91977 12.6617 5.91977 12.6617C5.91977 12.6617 5.91977 14.8756 6.14558 15.9023C6.27461 16.4799 6.72623 16.9612 7.30687 17.0574C8.33913 17.282 12.6617 17.282 12.6617 17.282C12.6617 17.282 16.952 17.282 18.0165 17.0574C18.5972 16.9291 19.0488 16.4799 19.1778 15.9023C19.5327 14.8756 19.4036 12.6617 19.4036 12.6617ZM11.2746 14.7473V10.5761L14.8875 12.6617L11.2746 14.7473Z" fill="black"/>
</svg>
