<svg width="24" height="24" viewBox="0 0 24 24" fill="none" xmlns="http://www.w3.org/2000/svg">
<path fill-rule="evenodd" clip-rule="evenodd" d="M12.0655 7.001C11.4625 7.001 10.9735 7.489 10.9735 8.092V13.714C10.9735 14.316 11.4625 14.805 12.0655 14.805C12.6675 14.805 13.1565 14.316 13.1565 13.714V8.092C13.1565 7.489 12.6675 7.001 12.0655 7.001M21.98 18.92C21.9383 18.997 21.8718 18.997 21.8499 18.997H2.15009C2.12824 18.997 2.06168 18.997 2.01996 18.92C1.97824 18.844 2.01301 18.788 2.02493 18.77L11.8753 3.069C11.8863 3.052 11.919 3 11.9995 3C12.081 3 12.1137 3.052 12.1247 3.069L21.9751 18.77C21.987 18.788 22.0218 18.844 21.98 18.92M23.6693 17.701L13.8067 2.001C13.4128 1.374 12.7375 1 11.9995 1C11.2625 1 10.5872 1.374 10.1933 2.001L0.330705 17.701C-0.0850428 18.362 -0.110903 19.199 0.265061 19.885C0.641025 20.571 1.35913 20.997 2.13792 20.997H21.8621C22.6409 20.997 23.359 20.571 23.7349 19.885C24.1109 19.199 24.085 18.362 23.6693 17.701M12.0655 15.805C11.4625 15.805 10.9735 16.293 10.9735 16.897C10.9735 17.498 11.4625 17.987 12.0655 17.987C12.6675 17.987 13.1565 17.498 13.1565 16.897C13.1565 16.293 12.6675 15.805 12.0655 15.805" fill="#333333"/>
</svg>
