<svg width="24" height="24" viewBox="0 0 24 24" fill="none" xmlns="http://www.w3.org/2000/svg">
<path d="M20 0C21.1046 0 22 0.895431 22 2V22C22 23.1046 21.1046 24 20 24H4C2.89543 24 2 23.1046 2 22V2C2 0.895431 2.89543 0 4 0H20ZM4.2002 21.7998H19.7998V2.2002H4.2002V21.7998ZM13.9004 16.7998C14.5077 16.8 15 17.293 15 17.9004C14.9998 18.5076 14.5076 18.9998 13.9004 19H6.09961C5.49241 18.9998 5.00022 18.5076 5 17.9004C5 17.293 5.49228 16.8 6.09961 16.7998H13.9004ZM17.9004 12.7998C18.5077 12.8 19 13.293 19 13.9004C18.9998 14.5076 18.5076 14.9998 17.9004 15H6.09961C5.49241 14.9998 5.00022 14.5076 5 13.9004C5 13.293 5.49228 12.8 6.09961 12.7998H17.9004ZM17.9004 8.7998C18.5077 8.80002 19 9.29301 19 9.90039C18.9998 10.5076 18.5076 10.9998 17.9004 11H6.09961C5.49241 10.9998 5.00022 10.5076 5 9.90039C5 9.29301 5.49228 8.80002 6.09961 8.7998H17.9004ZM17.9004 4.7998C18.5077 4.80002 19 5.29301 19 5.90039C18.9998 6.50759 18.5076 6.99979 17.9004 7H6.09961C5.49241 6.99979 5.00022 6.50759 5 5.90039C5 5.29301 5.49228 4.80002 6.09961 4.7998H17.9004Z" fill="#333333"/>
</svg>
