<svg width="23" height="22" viewBox="0 0 23 22" fill="none" xmlns="http://www.w3.org/2000/svg">
<path d="M8.34766 0.00170898C8.59589 0.00173861 8.81594 0.0554234 8.9209 0.0827637C9.05341 0.117291 9.18416 0.160412 9.29492 0.198975C9.51354 0.2751 9.74712 0.368912 9.88184 0.421631C10.5399 0.679118 10.9577 0.831682 11.376 0.831787C11.7895 0.831787 12.2026 0.682548 12.8477 0.43042C13.023 0.357498 13.2706 0.259868 13.5049 0.18042C13.6209 0.141086 13.761 0.0965515 13.8994 0.0632324C13.9678 0.0467822 14.0616 0.0273239 14.166 0.0144043C14.2223 0.00745646 14.3577 -0.00852338 14.5293 0.00561523L14.7119 0.0310059L14.8574 0.0603027L14.9951 0.116943C15.2312 0.21531 15.3953 0.351026 15.4697 0.415771C15.5593 0.493758 15.6337 0.571931 15.6875 0.632568C15.7952 0.753821 15.8927 0.884964 15.9697 0.99292C16.1217 1.20614 16.2678 1.43779 16.3564 1.58081L16.6162 1.98413C16.8163 2.28498 16.9818 2.50153 17.1641 2.66187L17.2754 2.75171L17.2803 2.75464C17.5171 2.92834 17.8065 3.0367 18.2236 3.15308L18.6865 3.27515L18.6963 3.2771L18.7061 3.28003C18.8216 3.31112 19.1242 3.38645 19.3516 3.45483C19.4732 3.49141 19.6272 3.54115 19.7764 3.60425C19.8514 3.636 19.9489 3.68147 20.0518 3.74194C20.142 3.795 20.3105 3.90197 20.4707 4.07983L20.6064 4.2312L20.6973 4.41284C20.7905 4.59923 20.8317 4.76956 20.8506 4.86206C20.872 4.96707 20.883 5.06438 20.8896 5.14038C20.9029 5.29145 20.9043 5.44416 20.9033 5.56812C20.9014 5.80541 20.8868 6.09803 20.8818 6.23218L20.8809 6.25073L20.8799 6.26831C20.8371 6.96762 20.8188 7.40548 20.9443 7.80542C21.0641 8.16006 21.3154 8.47893 21.75 8.9978L21.9629 9.25171C22.0452 9.35218 22.1346 9.46504 22.2178 9.5769C22.2992 9.68655 22.3986 9.82761 22.4844 9.97729C22.5272 10.052 22.5828 10.1562 22.6309 10.2791C22.6705 10.3804 22.7519 10.61 22.752 10.9041C22.7519 11.1981 22.6705 11.4278 22.6309 11.5291C22.5828 11.6518 22.5272 11.7561 22.4844 11.8308C22.3987 11.9804 22.2992 12.1216 22.2178 12.2312C22.0514 12.455 21.8597 12.6812 21.75 12.8103L21.4189 13.199C21.1721 13.5111 21.0149 13.7506 20.9287 14.0105C20.8359 14.3108 20.8169 14.6427 20.835 15.0583L20.8643 15.5095L20.8652 15.5203C20.8782 15.6954 20.8983 15.9699 20.9023 16.2263C20.9044 16.3529 20.903 16.5082 20.8896 16.6619C20.8827 16.7417 20.8574 17.091 20.6729 17.4294L20.5889 17.5837L20.4707 17.7146C20.2052 18.0094 19.8757 18.1497 19.792 18.1863C19.6428 18.2514 19.4885 18.3026 19.3623 18.3416C19.121 18.4161 18.8639 18.4778 18.6855 18.5193L18.6865 18.5203C18.0054 18.6942 17.5961 18.8083 17.2803 19.0398C16.9563 19.2775 16.7081 19.6369 16.3701 20.1912L16.3623 20.2039L16.3555 20.2156C16.2713 20.3478 16.1209 20.5865 15.9736 20.7966C15.9006 20.9009 15.808 21.0276 15.708 21.1443C15.6582 21.2024 15.5898 21.2782 15.5068 21.3542C15.44 21.4154 15.2817 21.5544 15.0518 21.6589L14.8105 21.7683L14.5459 21.7888C14.2496 21.8115 13.985 21.7475 13.8965 21.7263C13.7592 21.6935 13.6215 21.6513 13.5039 21.6121C13.2787 21.537 13.0461 21.4455 12.8701 21.3728V21.3738C12.212 21.1163 11.7943 20.9636 11.376 20.9636C10.9577 20.9637 10.5399 21.1163 9.88184 21.3738L9.88086 21.3728C9.71272 21.4424 9.4776 21.5378 9.25 21.615C9.13134 21.6552 8.98714 21.7003 8.8418 21.7341C8.76809 21.7513 8.43936 21.8331 8.07422 21.7722L7.9043 21.7439L7.74414 21.6775C7.50367 21.5772 7.33696 21.4382 7.26172 21.3718C7.17164 21.2923 7.09796 21.2129 7.04492 21.1521C6.93874 21.0303 6.84238 20.8986 6.76855 20.7937L6.3916 20.2283L6.38281 20.2136C6.05242 19.6926 5.83094 19.3579 5.57617 19.1335L5.45898 19.0398C5.14316 18.8083 4.73389 18.6942 4.05273 18.5203L4.04297 18.5173L4.0332 18.5154C3.91762 18.4843 3.6142 18.409 3.38672 18.3406C3.2652 18.304 3.11183 18.2542 2.96289 18.1912C2.88787 18.1594 2.7903 18.1139 2.6875 18.0535C2.59725 18.0004 2.42882 17.8926 2.26855 17.7146L2.13184 17.5642L2.04102 17.3816C1.88234 17.0639 1.85749 16.7436 1.84961 16.6511C1.83655 16.4978 1.83491 16.3433 1.83691 16.2156C1.84098 15.9575 1.86103 15.6829 1.87402 15.5076C1.91574 14.8234 1.93155 14.3912 1.80957 13.9968C1.69076 13.6394 1.43938 13.3199 1.00195 12.7976L0.790039 12.5437C0.707667 12.4431 0.618391 12.3305 0.535156 12.2185C0.453596 12.1088 0.353424 11.9671 0.267578 11.8171C0.224795 11.7424 0.169061 11.638 0.121094 11.5154C0.0913486 11.4393 0.0385324 11.2913 0.0136719 11.0984L0 10.8914L0.0136719 10.6833C0.038518 10.4906 0.0913394 10.3425 0.121094 10.2664C0.169035 10.1438 0.224802 10.0393 0.267578 9.9646C0.353379 9.81476 0.453619 9.67296 0.535156 9.56323C0.701468 9.33946 0.892217 9.11323 1.00195 8.98413C1.43931 8.46193 1.69075 8.14232 1.80957 7.78491C1.9327 7.4003 1.92795 6.93472 1.875 6.28589L1.87402 6.27417C1.86105 6.09905 1.84099 5.82455 1.83691 5.56812C1.83491 5.44173 1.83626 5.28696 1.84961 5.13354C1.85652 5.05432 1.88166 4.70382 2.06641 4.36499L2.15039 4.21069L2.26855 4.07983C2.53373 3.78545 2.86309 3.64588 2.94727 3.60913C3.09639 3.54402 3.25077 3.49187 3.37695 3.45288C3.63336 3.37369 3.90718 3.30761 4.08594 3.26636C4.74722 3.09716 5.14833 2.98236 5.45898 2.75464C5.78303 2.51694 6.03112 2.15761 6.36914 1.60327C6.46976 1.434 6.61575 1.20202 6.76562 0.990967C6.84189 0.883593 6.93644 0.756838 7.03809 0.640381C7.08865 0.582462 7.15774 0.507848 7.24023 0.43335C7.30616 0.37385 7.46221 0.238932 7.6875 0.136475L7.9834 0.00170898H8.34766ZM8.30762 1.50171C8.16252 1.56841 7.82043 2.09511 7.64941 2.38452C7.32027 2.9243 6.9381 3.53017 6.3457 3.9646L6.11816 4.11597C5.5768 4.44171 4.96415 4.59007 4.42285 4.72827C4.08038 4.80732 3.50124 4.95216 3.38281 5.08374C3.30403 5.22911 3.3438 5.80853 3.37012 6.16382C3.42277 6.80889 3.46201 7.54619 3.23828 8.2439C3.01443 8.92844 2.55363 9.4687 2.14551 9.95581C1.9216 10.2192 1.5 10.7202 1.5 10.8914C1.50094 11.0631 1.92189 11.5628 2.14551 11.8259C2.55369 12.3131 3.01445 12.8532 3.23828 13.5378C3.46203 14.2487 3.40962 14.9728 3.37012 15.6179C3.34378 15.9735 3.30382 16.5537 3.38281 16.7117C3.50149 16.8432 4.0805 16.975 4.42285 17.0671C5.04172 17.2251 5.75316 17.3963 6.3457 17.8308C6.92509 18.2522 7.30705 18.871 7.64941 19.4109C7.81082 19.653 8.08352 20.0968 8.25488 20.2478L8.32129 20.2927C8.47939 20.3189 9.01894 20.109 9.33496 19.9773C9.94058 19.7403 10.6256 19.4637 11.376 19.4636L11.6543 19.4753C12.2965 19.5315 12.887 19.7699 13.417 19.9773C13.7326 20.1088 14.2587 20.3053 14.4307 20.2927C14.503 20.2598 14.6219 20.1121 14.7451 19.9363L15.0898 19.4109C15.3779 18.9385 15.7061 18.4152 16.1807 18.0007L16.3936 17.8308C16.9859 17.3965 17.6967 17.2251 18.3154 17.0671C18.6147 16.9981 19.0956 16.8784 19.291 16.7615L19.3564 16.7117C19.4157 16.603 19.4082 16.2492 19.3896 15.9294L19.3691 15.6316C19.3165 14.9864 19.2772 14.2616 19.501 13.5505C19.7248 12.8661 20.1856 12.3257 20.5938 11.8386H20.6074L20.8027 11.6062C21.0156 11.3464 21.2518 11.0325 21.252 10.9041C21.2519 10.7756 21.0157 10.4617 20.8027 10.2019L20.6074 9.96948C20.1993 9.48232 19.7375 8.9422 19.5137 8.25757C19.3457 7.72416 19.3335 7.1829 19.3545 6.67358L19.3828 6.17651C19.3943 5.86565 19.4259 5.38367 19.3809 5.16187L19.3564 5.08374C19.2378 4.95208 18.6577 4.82043 18.3154 4.72827C17.6968 4.57032 16.9859 4.39887 16.3936 3.9646C15.8143 3.5433 15.4321 2.92431 15.0898 2.38452C14.9187 2.10798 14.576 1.56755 14.418 1.50171C14.2857 1.47576 13.7328 1.68654 13.417 1.81812C12.8114 2.0551 12.1264 2.33179 11.376 2.33179L11.0977 2.31909C10.639 2.27892 10.2065 2.14596 9.80371 1.9978L9.33496 1.81812C9.07008 1.71446 8.66428 1.55002 8.43457 1.5105L8.34766 1.50171H8.30762ZM14.7676 8.31421C15.0324 8.05243 15.4829 8.03609 15.7705 8.27905C16.0581 8.52101 16.0765 8.92979 15.8096 9.19116L10.4141 14.4841C10.2855 14.6106 10.1054 14.6853 9.91504 14.6912H9.89355C9.71112 14.6911 9.53513 14.6269 9.40234 14.5115L7.00098 12.4255C6.71766 12.1791 6.70649 11.7709 6.97754 11.5134C7.24888 11.2572 7.69829 11.2458 7.98242 11.4929L9.86328 13.1257L14.7676 8.31421Z" fill="black"/>
</svg>
