<svg width="24" height="24" viewBox="0 0 24 24" fill="none" xmlns="http://www.w3.org/2000/svg">
<g id="email">
<path id="icon" d="M12 0C18.6274 0 24 5.37258 24 12V14.1816C24 16.3148 22.1465 18 19.9092 18C18.4111 18 17.0858 17.2441 16.373 16.1045C15.2785 17.2702 13.7252 18 12 18C8.68629 18 6 15.3137 6 12C6 8.68629 8.68629 6 12 6C13.4636 6 14.8043 6.52478 15.8457 7.39551C15.9554 6.909 16.3895 6.5459 16.9092 6.5459C17.5116 6.54595 18 7.03426 18 7.63672V14.1816C18 15.061 18.8328 15.8184 19.9092 15.8184C20.9184 15.8183 21.7134 15.1526 21.8086 14.3447L21.8184 14.1816V12C21.8184 6.57757 17.4224 2.18164 12 2.18164C6.57757 2.18164 2.18164 6.57757 2.18164 12C2.18164 17.4224 6.57757 21.8184 12 21.8184C12.6025 21.8184 13.0908 22.3067 13.0908 22.9092C13.0908 23.5116 12.6025 24 12 24C5.37258 24 0 18.6274 0 12C0 5.37258 5.37258 0 12 0ZM12 8.18164C9.89128 8.18164 8.18164 9.89128 8.18164 12C8.18164 14.1087 9.89128 15.8184 12 15.8184C14.1087 15.8184 15.8184 14.1087 15.8184 12C15.8184 9.89128 14.1087 8.18164 12 8.18164Z" fill="#333333"/>
</g>
</svg>
