<svg width="24" height="24" viewBox="0 0 24 24" fill="none" xmlns="http://www.w3.org/2000/svg">
<path d="M12 0C18.6274 0 24 5.37258 24 12C24 18.6274 18.6274 24 12 24C5.37258 24 0 18.6274 0 12C0 5.37258 5.37258 0 12 0ZM12 2.18164C6.57757 2.18164 2.18164 6.57757 2.18164 12C2.18164 17.4224 6.57757 21.8184 12 21.8184C17.4224 21.8184 21.8184 17.4224 21.8184 12C21.8184 6.57757 17.4224 2.18164 12 2.18164ZM12 17.1426C12.5888 17.1427 13.0661 17.6031 13.0664 18.1709C13.0664 18.7389 12.589 19.2001 12 19.2002C11.411 19.2001 10.9336 18.7389 10.9336 18.1709C10.9339 17.6031 11.4112 17.1427 12 17.1426ZM12 4.7998C14.6508 4.79991 16.7997 6.87257 16.7998 9.42871C16.7996 10.9672 15.5349 12.6029 13.708 13.3975C13.5293 13.4752 13.3832 13.6306 13.2666 13.8701C13.188 14.0317 13.1311 14.2159 13.0957 14.4014C13.0751 14.5096 13.0676 14.5871 13.0664 14.6133C13.0421 15.1808 12.5446 15.6219 11.9561 15.5986C11.3677 15.5751 10.9106 15.0966 10.9346 14.5293C10.9521 14.1203 11.0571 13.5691 11.3359 12.9961C11.6534 12.3439 12.1419 11.8212 12.8311 11.5215C13.9382 11.0399 14.6667 10.0988 14.667 9.42871C14.6669 8.0087 13.4726 6.85752 12 6.85742C10.5274 6.85752 9.33409 8.0087 9.33398 9.42871C9.3338 9.99656 8.8555 10.4569 8.2666 10.457C7.67773 10.4569 7.20038 9.99654 7.2002 9.42871C7.2003 6.87257 9.34919 4.79991 12 4.7998Z" fill="#333333"/>
</svg>
