<svg width="24" height="24" viewBox="0 0 24 24" fill="none" xmlns="http://www.w3.org/2000/svg">
<path fill-rule="evenodd" clip-rule="evenodd" d="M12.0005 21.8181C6.57749 21.8181 2.18249 17.4221 2.18249 12.0001C2.18249 6.57809 6.57749 2.18209 12.0005 2.18209C17.4225 2.18209 21.8175 6.57809 21.8175 12.0001C21.8175 17.4221 17.4225 21.8181 12.0005 21.8181M12.0005 9.15527e-05C5.37249 9.15527e-05 0.000488281 5.37309 0.000488281 12.0001C0.000488281 18.6281 5.37249 24.0001 12.0005 24.0001C18.6275 24.0001 24.0005 18.6281 24.0005 12.0001C24.0005 5.37309 18.6275 9.15527e-05 12.0005 9.15527e-05M12.9675 17.2681C12.6425 17.6411 12.3705 17.8281 12.1525 17.8281C12.0665 17.8281 11.9895 17.8051 11.9195 17.7591C11.8495 17.7141 11.8135 17.6131 11.8135 17.4591C11.8135 17.3031 11.8765 16.9661 12.0035 16.4461C12.0535 16.2421 12.1475 15.8761 12.2885 15.3481L13.9655 9.19909L13.0445 9.37909C12.7225 9.44209 12.1775 9.51709 11.4055 9.60509C10.6345 9.69309 10.0455 9.75109 9.64149 9.77909V10.3481C10.1255 10.3701 10.4585 10.4161 10.6415 10.4861C10.8235 10.5561 10.9155 10.7351 10.9155 11.0241C10.9155 11.0731 10.9095 11.1261 10.8985 11.1821C10.8895 11.2381 10.8765 11.2951 10.8625 11.3511L9.53349 16.2031C9.43549 16.5621 9.36049 16.8501 9.31249 17.0681C9.22749 17.4481 9.18549 17.7251 9.18549 17.9011C9.18549 18.4011 9.34149 18.7721 9.65449 19.0141C9.96949 19.2561 10.3225 19.3791 10.7165 19.3791C11.4145 19.3791 12.0685 19.0831 12.6825 18.4921C13.0555 18.1331 13.5935 17.4371 14.2975 16.4041L13.8225 16.0971C13.5765 16.5061 13.2905 16.8961 12.9675 17.2681M13.3695 4.37909C12.9685 4.37909 12.6255 4.51909 12.3415 4.80009C12.0565 5.08209 11.9135 5.42209 11.9135 5.82309C11.9135 6.22409 12.0565 6.56709 12.3415 6.85209C12.6255 7.13609 12.9685 7.27909 13.3695 7.27909C13.7705 7.27909 14.1115 7.13609 14.3935 6.85209C14.6745 6.56709 14.8145 6.22409 14.8145 5.82309C14.8145 5.42209 14.6745 5.08209 14.3935 4.80009C14.1115 4.51909 13.7705 4.37909 13.3695 4.37909" fill="#333333"/>
</svg>
