<svg width="24" height="24" viewBox="0 0 24 24" fill="none" xmlns="http://www.w3.org/2000/svg">
<g id="phone">
<path id="icon" fill-rule="evenodd" clip-rule="evenodd" d="M21.5716 18.6587L18.4654 16.0711C18.2711 15.9093 17.8381 15.8857 17.6269 16.0264L15.9015 17.1763C15.7207 17.2968 15.5081 17.3606 15.2908 17.3595C14.9542 17.3579 14.421 17.3021 13.7536 17.1437C12.6581 16.8836 11.5634 16.4201 10.5395 15.7009C10.1101 15.3992 9.70202 15.0578 9.31871 14.6746C8.93541 14.2914 8.59382 13.8835 8.29209 13.4542C7.57258 12.4307 7.10892 11.3364 6.84875 10.2413C6.69025 9.57407 6.63449 9.04108 6.63285 8.70462C6.63179 8.48743 6.69561 8.27486 6.81613 8.09414L7.96639 6.36936C8.1101 6.15387 8.08703 5.72942 7.92176 5.53116L5.33322 2.42601C5.06088 2.09932 4.72581 2.10076 4.45719 2.42896L2.74225 4.52427C2.27006 5.10118 2.04583 6.26238 2.26795 6.96626C2.281 7.0076 2.29157 7.04969 2.29961 7.0923C2.31587 7.17852 2.36818 7.38399 2.47047 7.69636C2.64954 8.24319 2.90649 8.87231 3.25539 9.57157C4.26896 11.6029 5.81955 13.768 8.02261 15.9702C10.2257 18.1725 12.3914 19.7226 14.4235 20.7358C15.123 21.0846 15.7524 21.3414 16.2994 21.5204C16.6119 21.6227 16.8174 21.675 16.9037 21.6912C16.9551 21.7009 17.0057 21.7143 17.0552 21.7313C17.7203 21.9591 18.8872 21.7276 19.4726 21.2488L21.5687 19.5344C21.8993 19.264 21.9002 18.9324 21.5716 18.6587ZM16.4161 14.211C17.4324 13.5338 18.9266 13.6151 19.8627 14.3949L22.9689 16.9825C24.3494 18.1325 24.3439 20.0837 22.9508 21.2231L20.8548 22.9374C19.716 23.8688 17.8098 24.2593 16.4211 23.8195C16.2396 23.7805 15.97 23.7085 15.6204 23.5941C14.9734 23.3824 14.2454 23.0852 13.4493 22.6883C11.2084 21.571 8.8501 19.8831 6.47923 17.5131C4.10837 15.143 2.41993 12.7856 1.3022 10.5454C0.905147 9.74965 0.607902 9.0219 0.396117 8.37515C0.278989 8.01746 0.206265 7.74349 0.167893 7.56212C-0.246659 6.16143 0.12819 4.27249 1.05296 3.14261L2.76791 1.0473C3.90487 -0.341833 5.86004 -0.350266 7.00999 1.02919L9.59853 4.13434C10.3821 5.07432 10.4628 6.5595 9.78247 7.57965L8.83963 8.99343C8.86531 9.21715 8.90824 9.46724 8.97235 9.73713C9.17186 10.5769 9.52803 11.4175 10.0779 12.1998C10.3081 12.5273 10.5689 12.8386 10.8621 13.1318C11.1553 13.4249 11.4668 13.6855 11.7944 13.9156C12.577 14.4654 13.4179 14.8214 14.2579 15.0208C14.5279 15.0849 14.7781 15.1278 15.0019 15.1535L16.4161 14.211Z" fill="#333333"/>
</g>
</svg>
