<svg width="24" height="24" viewBox="0 0 24 24" fill="none" xmlns="http://www.w3.org/2000/svg">
<path fill-rule="evenodd" clip-rule="evenodd" d="M6.62148 12.049C6.22348 11.67 5.58848 11.685 5.20748 12.084C4.82648 12.485 4.84248 13.117 5.24248 13.498L9.13248 17.199C9.31848 17.376 9.56548 17.475 9.82148 17.475C9.83248 17.475 9.84448 17.475 9.85448 17.474C10.1235 17.465 10.3765 17.349 10.5585 17.152L22.6385 4.15403C23.0125 3.74803 22.9845 3.11503 22.5785 2.74103C22.1735 2.36903 21.5405 2.39403 21.1655 2.80103L9.77348 15.049L6.62148 12.049ZM23.6035 8.92503C23.4615 8.39203 22.9135 8.07403 22.3805 8.21503C21.8475 8.35703 21.5285 8.90403 21.6705 9.43903C21.9855 10.626 22.0775 11.854 21.9415 13.087C21.6515 15.742 20.3445 18.125 18.2615 19.797C16.1795 21.47 13.5695 22.236 10.9135 21.94C8.25848 21.65 5.87548 20.342 4.20348 18.259C2.53048 16.176 1.76948 13.567 2.06048 10.911C2.35148 8.25603 3.65848 5.87303 5.74148 4.20103C7.82448 2.52803 10.4355 1.76703 13.0895 2.05903C13.9915 2.15703 14.8725 2.37603 15.7085 2.70803C16.2205 2.91603 16.8035 2.66203 17.0075 2.15003C17.2125 1.63603 16.9615 1.05503 16.4485 0.851027C15.4445 0.450027 14.3885 0.189027 13.3065 0.0700268C6.73448 -0.638973 0.793476 4.11603 0.0724761 10.695C-0.275524 13.88 0.637476 17.012 2.64348 19.512C4.64948 22.011 7.51048 23.579 10.6965 23.928C11.1415 23.977 11.5845 24 12.0245 24C14.7435 24 17.3625 23.084 19.5145 21.357C22.0135 19.351 23.5815 16.49 23.9305 13.305C24.0925 11.826 23.9825 10.353 23.6035 8.92503V8.92503Z" fill="#333333"/>
</svg>
