<svg width="24" height="24" viewBox="0 0 24 24" fill="none" xmlns="http://www.w3.org/2000/svg">
<path d="M12 0C18.6274 0 24 5.37258 24 12C24 18.6274 18.6274 24 12 24C5.37258 24 0 18.6274 0 12C0 5.37258 5.37258 0 12 0ZM12 2.18164C6.57757 2.18164 2.18164 6.57757 2.18164 12C2.18164 17.4224 6.57757 21.8184 12 21.8184C17.4224 21.8184 21.8184 17.4224 21.8184 12C21.8184 6.57757 17.4224 2.18164 12 2.18164ZM12 16.3643C12.6025 16.3643 13.0908 16.8526 13.0908 17.4551C13.0905 18.0573 12.6023 18.5459 12 18.5459C11.3977 18.5459 10.9095 18.0573 10.9092 17.4551C10.9092 16.8526 11.3975 16.3643 12 16.3643ZM12 5.45508C12.6025 5.45513 13.0908 5.94344 13.0908 6.5459V13.6367C13.0906 14.239 12.6023 14.7275 12 14.7275C11.3977 14.7275 10.9094 14.239 10.9092 13.6367V6.5459C10.9092 5.94344 11.3975 5.45513 12 5.45508Z" fill="#333333"/>
</svg>
