<svg width="24" height="24" viewBox="0 0 24 24" fill="none" xmlns="http://www.w3.org/2000/svg">
<path d="M12 0C18.6274 0 24 5.37258 24 12C24 18.6274 18.6274 24 12 24C5.37258 24 0 18.6274 0 12C0 5.37258 5.37258 0 12 0ZM7.12305 13.0908C7.36597 17.2851 8.9878 20.6114 10.9092 21.5498V13.0908H7.12305ZM13.0908 21.5498C15.0121 20.6113 16.634 17.285 16.877 13.0908H13.0908V21.5498ZM2.24316 13.0908C2.58417 16.1752 4.35294 18.8283 6.875 20.375C5.78152 18.4474 5.08318 15.8976 4.93848 13.0908H2.24316ZM19.0615 13.0908C18.9168 15.8978 18.2176 18.4473 17.124 20.375C19.6465 18.8284 21.4158 16.1755 21.7568 13.0908H19.0615ZM6.875 3.62402C4.35271 5.17066 2.58419 7.82461 2.24316 10.9092H4.93848C5.0832 8.10205 5.78128 5.55174 6.875 3.62402ZM13.0908 10.9092H16.877C16.634 6.71468 15.0123 3.38744 13.0908 2.44922V10.9092ZM17.124 3.62402C18.2178 5.55179 18.9168 8.10187 19.0615 10.9092H21.7568C21.4158 7.82432 19.6467 5.1706 17.124 3.62402ZM10.9092 2.44922C8.98764 3.38739 7.36598 6.71463 7.12305 10.9092H10.9092V2.44922Z" fill="#333333"/>
</svg>
