<svg width="60" height="60" viewBox="0 0 60 60" fill="none" xmlns="http://www.w3.org/2000/svg">
<g clip-path="url(#clip0_1_435)">
<path d="M30 60C46.5685 60 60 46.5685 60 30C60 13.4315 46.5685 0 30 0C13.4315 0 0 13.4315 0 30C0 46.5685 13.4315 60 30 60Z" fill="#FFF5EE"/>
<path d="M11.4801 53.6199C14.0801 55.6599 17.0401 57.2799 20.2201 58.3799L22.2001 46.8199C15.0201 48.6399 12.3401 52.0799 11.4801 53.6199Z" fill="#FF6842"/>
<path d="M30 0.0200005C13.44 0.0200005 0 13.44 0 30.02C0 36.38 1.98 42.28 5.36 47.14C21.94 33.32 50.44 39.88 50.44 39.88C50.44 39.88 49.74 42.1 48.4 47.24C45 46.62 41.9 46.2 39.08 45.96L42.16 57.44C52.66 52.78 59.98 42.24 59.98 30.02C60 13.44 46.56 0.0200005 30 0.0200005ZM30 35.5C26.96 35.5 24.5 33.04 24.5 30C24.5 26.96 26.96 24.5 30 24.5C33.04 24.5 35.5 26.96 35.5 30C35.5 33.04 33.04 35.5 30 35.5ZM20.4 21.72L20.16 19.18L24.08 18.8L23 7.38L32.9 6.44L33.98 17.88L37.7 17.52L37.94 20.06L20.4 21.72Z" fill="#FF6842"/>
</g>
<defs>
<clipPath id="clip0_1_435">
<rect width="60" height="60" fill="white"/>
</clipPath>
</defs>
</svg>
