<svg width="60" height="60" viewBox="0 0 60 60" fill="none" xmlns="http://www.w3.org/2000/svg">
<rect x="5" y="6" width="47" height="47" fill="url(#paint0_linear_1_434)"/>
<path d="M50.6662 0C55.8209 0 60 4.17911 60 9.33377V50.6662C60 55.8209 55.8209 60 50.6662 60H9.33377C4.17911 60 0 55.8209 0 50.6662V9.33377C0 4.17911 4.17911 0 9.33377 0H50.6662ZM34.3088 22.5065L34.3175 40.3819L17.0009 43.5308V47.9991L38.6426 44.0582C39.8306 43.8127 40.9047 43.161 41.6895 42.2081C42.4741 41.2553 42.9243 40.0561 42.9677 38.8064V20.9321L34.3088 22.5065ZM21.3379 15.9364C20.1521 16.1853 19.0814 16.8385 18.2997 17.7919C17.5181 18.7453 17.0707 19.9432 17.0291 21.1914V39.0668L25.6868 37.4913V19.617L43.0046 16.4638V11.9998L21.3379 15.9364Z" fill="url(#paint1_linear_1_434)"/>
<path d="M50.6662 0C55.8209 0 60 4.17911 60 9.33377V50.6662C60 55.8209 55.8209 60 50.6662 60H9.33377C4.17911 60 0 55.8209 0 50.6662V9.33377C0 4.17911 4.17911 0 9.33377 0H50.6662ZM34.3088 22.5065L34.3175 40.3819L17.0009 43.5308V47.9991L38.6426 44.0582C39.8306 43.8127 40.9047 43.161 41.6895 42.2081C42.4741 41.2553 42.9243 40.0561 42.9677 38.8064V20.9321L34.3088 22.5065ZM21.3379 15.9364C20.1521 16.1853 19.0814 16.8385 18.2997 17.7919C17.5181 18.7453 17.0707 19.9432 17.0291 21.1914V39.0668L25.6868 37.4913V19.617L43.0046 16.4638V11.9998L21.3379 15.9364Z" fill="#006DFF"/>
<defs>
<linearGradient id="paint0_linear_1_434" x1="93.5848" y1="51.4044" x2="-11.888" y2="-17.0819" gradientUnits="userSpaceOnUse">
<stop offset="0.140249" stop-color="#DAFF8C"/>
<stop offset="0.976057" stop-color="#B8FFFF"/>
</linearGradient>
<linearGradient id="paint1_linear_1_434" x1="113.087" y1="57.963" x2="-21.5591" y2="-29.4663" gradientUnits="userSpaceOnUse">
<stop offset="0.140249" stop-color="#DAFF8C"/>
<stop offset="0.976057" stop-color="#B8FFFF"/>
</linearGradient>
</defs>
</svg>
