<svg width="164" height="36" viewBox="0 0 164 36" fill="none" xmlns="http://www.w3.org/2000/svg">
<g clip-path="url(#clip0_11_1873)">
<path d="M4.12587 16.5902H9.0464V20.0248H-4.57764e-05V0.276001H4.12587V16.5902Z" fill="#212323"/>
<path d="M10.3453 20.0248V0.276001H14.4712V20.0248H10.3453Z" fill="#212323"/>
<path d="M26.5739 0.276001V3.71058H23.2884V20.0248H19.1625V3.72591H15.8771V0.276001H26.5739Z" fill="#212323"/>
<path d="M38.2334 0.276001V3.71058H34.948V20.0248H30.8221V3.72591H27.5366V0.276001H38.2334Z" fill="#212323"/>
<path d="M43.7499 16.5902H48.6705V20.0248H39.624V0.276001H43.7499V16.5902Z" fill="#212323"/>
<path d="M54.0953 16.5902H59.7188V20.0248H49.9694V0.276001H59.4131V3.71058H54.0953V8.44845H59.0464V11.883H54.0953V16.5902Z" fill="#212323"/>
<path d="M73.5177 0.276001H77.6436V20.0248H73.5177V11.8217H70.4309V20.0248H66.305V0.276001H70.4309V8.40245H73.5177V0.276001Z" fill="#212323"/>
<path d="M79.4925 10.2117C79.4925 3.75657 81.6319 0 85.223 0C88.8446 0 90.9534 3.75657 90.9534 10.2117C90.9534 16.5902 88.8446 20.3161 85.223 20.3161C81.6166 20.3161 79.4925 16.5902 79.4925 10.2117ZM86.858 10.2117C86.858 5.10586 86.4149 3.43457 85.223 3.43457C84.0463 3.43457 83.5879 5.10586 83.5879 10.2117C83.5879 15.2409 84.031 16.8662 85.223 16.8662C86.3996 16.8662 86.858 15.2409 86.858 10.2117Z" fill="#212323"/>
<path d="M101.864 0.276001V3.71058H98.5786V20.0248H94.4527V3.72591H91.1673V0.276001H101.864Z" fill="#212323"/>
<path d="M107.381 16.5902H113.004V20.0248H103.255V0.276001H112.698V3.71058H107.381V8.44845H112.332V11.883H107.381V16.5902Z" fill="#212323"/>
<path d="M118.796 16.5902H123.716V20.0248H114.67V0.276001H118.796V16.5902Z" fill="#212323"/>
<path d="M125.015 20.0248V0.276001H129.141V20.0248H125.015Z" fill="#212323"/>
<path d="M135.636 16.5902H141.259V20.0248H131.51V0.276001H140.953V3.71058H135.636V8.44845H140.587V11.883H135.636V16.5902Z" fill="#212323"/>
<path d="M154.554 20.0248H150.076C149.817 14.4896 149.435 14.0756 147.83 14.0756H147.035V20.0248H142.909V0.276001H148.533C152.185 0.276001 154.263 2.6986 154.263 6.5625C154.263 10.6564 152.582 13.0177 149.373 13.5543C152.903 13.7383 153.835 14.7809 154.554 20.0248ZM147.051 10.6411H147.952C149.557 10.6411 150.153 9.70575 150.153 7.05315C150.153 4.59988 149.541 3.72591 147.845 3.72591H147.051V10.6411Z" fill="#212323"/>
<path d="M162.24 18.9208V13.8916H158.099V18.9208H156.464V20.0248H163.799V18.9208H162.24Z" fill="#212323"/>
</g>
<path d="M85.3357 34.209L83.4393 29.3531H84.6844L86.0349 33.0214H86.054L87.3374 29.3531H88.5538L86.6574 34.3048C86.1977 35.5212 85.6326 35.9905 84.6078 36C84.445 36 84.2151 35.9809 84.0427 35.9522V35.0231C84.1864 35.0519 84.263 35.0519 84.3683 35.0519C84.8664 35.0519 85.0771 34.8795 85.3357 34.209Z" fill="#212323"/>
<path d="M80.5441 34.2186H77.5463V27.3801H80.2951C81.8945 27.3801 82.7661 28.0218 82.7661 29.2478C82.7661 29.8512 82.2872 30.512 81.7317 30.6748C82.4788 30.876 83.0438 31.4794 83.0438 32.2743C83.0438 33.5577 82.1244 34.2186 80.5441 34.2186ZM78.7914 30.2726H80.2855C81.1379 30.2726 81.5402 29.8895 81.5402 29.2957C81.5402 28.6731 81.1283 28.3187 80.2951 28.3187H78.7914V30.2726ZM78.7914 31.1825V33.28H80.4483C81.3294 33.28 81.7892 32.8873 81.7892 32.2264C81.7892 31.5847 81.3199 31.1825 80.4387 31.1825H78.7914Z" fill="#212323"/>
<path d="M97.7115 32.3766V33.7047L92.3719 34.6424V35.9705L99.0463 34.7991C99.4131 34.7264 99.7445 34.5326 99.9867 34.2491C100.229 33.9656 100.368 33.6091 100.381 33.2372V27.9247L97.7115 28.3922V32.3766Z" fill="#212323"/>
<path d="M93.7067 26.2139C93.3399 26.2872 93.0087 26.4813 92.7665 26.7649C92.5243 27.0486 92.3852 27.4052 92.3718 27.7771V33.0897L95.0416 32.6208V27.3083L100.381 26.372V25.0438L93.7067 26.2139Z" fill="#212323"/>
<path d="M103.719 32.1893H105.031C105.061 33.0991 105.824 33.6356 106.941 33.6356C107.806 33.6356 108.375 33.1695 108.375 32.4815C108.375 31.5212 107.419 31.3194 106.403 31.0458C105.254 30.743 104 30.3485 103.974 28.7295C103.974 27.5063 105.061 26.7479 106.738 26.7479C108.34 26.7479 109.432 27.6178 109.473 28.942H108.212C108.172 28.1332 107.572 27.6683 106.707 27.6683C105.842 27.6683 105.264 28.0827 105.275 28.7096C105.284 29.549 106.016 29.8013 106.877 30.0377C108.128 30.3604 109.672 30.6234 109.672 32.4137C109.672 33.7087 108.586 34.5587 106.918 34.5587C104.973 34.56 103.719 33.6184 103.719 32.1893Z" fill="#212323"/>
<path d="M110.36 27.1756C110.358 27.021 110.402 26.8692 110.487 26.7396C110.571 26.61 110.693 26.5085 110.836 26.4478C110.979 26.3872 111.137 26.3702 111.29 26.3991C111.442 26.428 111.583 26.5014 111.694 26.61C111.804 26.7185 111.88 26.8574 111.911 27.0089C111.942 27.1605 111.927 27.3178 111.868 27.4608C111.809 27.6039 111.709 27.7263 111.58 27.8124C111.451 27.8986 111.299 27.9446 111.143 27.9446C111.04 27.9484 110.938 27.9313 110.842 27.8941C110.745 27.857 110.658 27.8006 110.585 27.7286C110.511 27.6566 110.453 27.5703 110.415 27.4752C110.376 27.3801 110.357 27.2782 110.36 27.1756ZM110.523 34.398V29.1346H111.773V34.394L110.523 34.398Z" fill="#212323"/>
<path d="M116.195 31.7574C116.195 30.0986 117.272 28.9763 118.827 28.9763C120.261 28.9763 121.246 30.0587 121.246 31.6565V32.0815H117.468C117.53 33.0417 118.069 33.7603 118.892 33.7603C119.143 33.7739 119.389 33.6962 119.586 33.5416C119.783 33.387 119.916 33.1663 119.96 32.9209H121.17C120.987 33.8917 120.154 34.5598 118.914 34.5598C117.261 34.5598 116.195 33.4163 116.195 31.7574ZM119.986 31.3231C119.955 30.4227 119.497 29.7759 118.807 29.7759C118.117 29.7759 117.576 30.4227 117.472 31.3231H119.986Z" fill="#212323"/>
<path d="M128.249 26.9139H130.14V34.398H128.889V28.3895L126.602 34.398H125.769L123.492 28.4001V34.398H122.232V26.9139H124.111L126.186 32.516L128.249 26.9139Z" fill="#212323"/>
<path d="M131.135 27.1758C131.134 27.0215 131.178 26.8701 131.263 26.7409C131.347 26.6117 131.469 26.5105 131.612 26.4501C131.755 26.3898 131.912 26.3731 132.064 26.402C132.217 26.431 132.357 26.5044 132.467 26.6128C132.578 26.7213 132.653 26.86 132.684 27.0112C132.715 27.1624 132.7 27.3194 132.641 27.4621C132.582 27.6049 132.482 27.727 132.353 27.8129C132.224 27.8989 132.073 27.9447 131.918 27.9448C131.815 27.9484 131.712 27.9311 131.616 27.8938C131.52 27.8566 131.433 27.8003 131.36 27.7282C131.286 27.6562 131.229 27.5701 131.19 27.4751C131.152 27.3801 131.133 27.2782 131.135 27.1758ZM131.298 34.3982V29.1348H132.552V34.4021L131.298 34.3982Z" fill="#212323"/>
<path d="M133.555 34.3977V29.1343H134.806V29.9936C134.987 29.6791 135.25 29.4186 135.566 29.2391C135.882 29.0595 136.241 28.9674 136.605 28.9722C137.723 28.9722 138.353 29.7 138.353 31.2885V34.3937H137.103V31.2818C137.103 30.4026 136.788 29.8209 136.137 29.8209C135.304 29.8209 134.802 30.5288 134.802 31.7015V34.3923L133.555 34.3977Z" fill="#212323"/>
<path d="M139.103 31.7483C139.103 30.0682 139.999 28.9764 141.35 28.9764C141.696 28.9799 142.035 29.0779 142.329 29.2599C142.623 29.4419 142.861 29.7009 143.017 30.0084V26.4078H144.268V34.3979H143.017V33.528C142.861 33.8355 142.623 34.0944 142.329 34.2764C142.035 34.4584 141.696 34.5565 141.35 34.5599C139.999 34.5387 139.103 33.427 139.103 31.7483ZM143.079 31.7576C143.079 30.5742 142.545 29.776 141.706 29.776C140.894 29.776 140.372 30.5729 140.372 31.7576C140.372 32.9423 140.906 33.7604 141.706 33.7604C142.539 33.7604 143.079 32.9516 143.079 31.7576Z" fill="#212323"/>
<path d="M144.989 31.7574C144.989 30.0986 146.067 28.9763 147.622 28.9763C149.055 28.9763 150.041 30.0587 150.041 31.6565V32.0815H146.259C146.321 33.0417 146.86 33.7603 147.682 33.7603C147.932 33.7737 148.179 33.6958 148.376 33.5413C148.572 33.3867 148.705 33.1661 148.75 32.9209H149.96C149.777 33.8917 148.944 34.5598 147.704 34.5598C146.056 34.5598 144.989 33.4163 144.989 31.7574ZM148.781 31.3231C148.75 30.4227 148.292 29.7759 147.602 29.7759C146.912 29.7759 146.371 30.4227 146.267 31.3231H148.781Z" fill="#212323"/>
<path d="M154.444 29.1339H153.214C152.993 29.1387 152.777 29.2029 152.589 29.3198C152.401 29.4366 152.248 29.6019 152.146 29.798V29.1339H150.896V34.3933H152.146V30.2628H154.444V29.1339Z" fill="#212323"/>
<path d="M115.696 30.0759V29.1343H114.943C114.813 29.1247 114.684 29.1612 114.578 29.2373C114.472 29.3133 114.397 29.424 114.365 29.55V27.7371H113.115V33.1439C113.123 34.1214 113.632 34.5637 114.663 34.5637C114.999 34.5622 115.332 34.5094 115.652 34.407V33.4507C115.439 33.5156 115.218 33.5488 114.995 33.549C114.574 33.549 114.349 33.3923 114.349 32.9248L114.364 30.0799L115.696 30.0759Z" fill="#212323"/>
<defs>
<clipPath id="clip0_11_1873">
<rect width="163.799" height="20.3161" fill="white"/>
</clipPath>
</defs>
</svg>
