<svg width="150" height="24" viewBox="0 0 150 24" fill="none" xmlns="http://www.w3.org/2000/svg">
<path d="M0 17.0316H3.88008C3.97087 19.7014 6.22474 21.276 9.52855 21.276C12.0863 21.276 13.7678 19.908 13.7678 17.8891C13.7678 15.0712 10.9416 14.4788 7.93782 13.6759C4.53928 12.7872 0.832873 11.6297 0.753929 6.87858C0.753929 3.28896 3.97088 1.06348 8.92857 1.06348C13.6652 1.06348 16.894 3.61634 17.0164 7.50218H13.2863C13.1679 5.12858 11.3956 3.76446 8.83779 3.76446C6.28001 3.76446 4.57087 4.98048 4.60245 6.82011C4.63008 9.28335 6.79315 10.0239 9.3391 10.7176C13.0376 11.6647 17.6045 12.4365 17.6045 17.6903C17.6045 21.4904 14.3915 23.9848 9.46143 23.9848C3.71036 23.9887 0 21.2254 0 17.0316Z" fill="#333333"/>
<path d="M19.6326 2.31903C19.6263 1.86526 19.7569 1.4199 20.0076 1.03959C20.2584 0.659273 20.618 0.361185 21.0408 0.183232C21.4636 0.00527925 21.9304 -0.0444977 22.3819 0.0402267C22.8334 0.124951 23.2492 0.340355 23.5764 0.65904C23.9036 0.977725 24.1275 1.38529 24.2195 1.82992C24.3115 2.27454 24.2675 2.73614 24.0931 3.15601C23.9187 3.57588 23.6217 3.93507 23.2401 4.18787C22.8584 4.44066 22.4092 4.57565 21.9496 4.57569C21.6449 4.58695 21.3411 4.53651 21.057 4.42749C20.7728 4.31847 20.5142 4.1532 20.2971 3.9418C20.0801 3.7304 19.9092 3.47736 19.7949 3.19828C19.6806 2.91921 19.6253 2.61998 19.6326 2.31903ZM20.1141 23.5138V8.06789H23.8126V23.5021L20.1141 23.5138Z" fill="#333333"/>
<path d="M36.8882 15.7624C36.8882 10.8944 40.0736 7.60095 44.6721 7.60095C48.9114 7.60095 51.8245 10.7774 51.8245 15.4662V16.7134H40.6539C40.8354 19.5313 42.4301 21.6399 44.8655 21.6399C45.6055 21.68 46.3349 21.4518 46.9164 20.9982C47.498 20.5445 47.8916 19.8967 48.0233 19.1766H51.5995C51.0587 22.0257 48.5956 23.9861 44.9287 23.9861C40.042 23.9861 36.8882 20.6304 36.8882 15.7624ZM48.0983 14.4879C48.0075 11.8454 46.6536 9.94727 44.6129 9.94727C42.5722 9.94727 40.9736 11.8454 40.6657 14.4879H48.0983Z" fill="#333333"/>
<path d="M72.5365 1.55078H78.1258V23.5133H74.4273V5.88093L67.6657 23.5133H65.2026L58.4687 5.91209V23.5133H54.7425V1.55078H60.3002L66.4342 17.9905L72.5365 1.55078Z" fill="#333333"/>
<path d="M81.0686 2.32009C81.0631 1.86724 81.1941 1.42302 81.4449 1.04385C81.6957 0.664684 82.055 0.367693 82.4771 0.190635C82.8993 0.0135775 83.3652 -0.0355597 83.8157 0.0494618C84.2662 0.134483 84.6809 0.349829 85.0072 0.668132C85.3334 0.986436 85.5565 1.39333 85.648 1.83711C85.7395 2.28088 85.6953 2.74149 85.5211 3.16042C85.3469 3.57935 85.0505 3.93768 84.6695 4.18987C84.2886 4.44206 83.8403 4.57671 83.3816 4.57675C83.0773 4.58745 82.7739 4.53662 82.4902 4.42735C82.2065 4.31809 81.9484 4.15272 81.7318 3.94138C81.5152 3.73003 81.3446 3.47719 81.2305 3.19839C81.1165 2.91958 81.0614 2.6207 81.0686 2.32009ZM81.5501 23.5148V8.06894H85.2565V23.5265L81.5501 23.5148Z" fill="#333333"/>
<path d="M88.2198 23.5122V8.0663H91.9183V10.588C92.454 9.66528 93.2298 8.90084 94.1653 8.37384C95.1009 7.84684 96.1622 7.57649 97.2392 7.59081C100.543 7.59081 102.406 9.72663 102.406 14.3881V23.5005H98.7115V14.3686C98.7115 11.7884 97.7799 10.0813 95.8537 10.0813C93.3906 10.0813 91.9065 12.1587 91.9065 15.6002V23.4966L88.2198 23.5122Z" fill="#333333"/>
<path d="M104.63 15.7403C104.63 10.8099 107.279 7.60611 111.274 7.60611C112.297 7.61615 113.299 7.90393 114.168 8.43803C115.038 8.97212 115.742 9.73197 116.204 10.6345V0.0682983H119.902V23.5158H116.204V20.9629C115.742 21.8655 115.038 22.6253 114.168 23.1594C113.299 23.6935 112.297 23.9813 111.274 23.9913C107.279 23.9289 104.63 20.6667 104.63 15.7403ZM116.385 15.7675C116.385 12.2948 114.806 9.95243 112.327 9.95243C109.924 9.95243 108.38 12.2909 108.38 15.7675C108.38 19.2441 109.959 21.645 112.327 21.645C114.79 21.645 116.385 19.2714 116.385 15.7675Z" fill="#333333"/>
<path d="M122.032 15.7624C122.032 10.8944 125.221 7.60095 129.82 7.60095C134.055 7.60095 136.972 10.7774 136.972 15.4662V16.7134H125.79C125.971 19.5313 127.566 21.6399 129.997 21.6399C130.737 21.6792 131.466 21.4506 132.047 20.9972C132.629 20.5437 133.023 19.8964 133.155 19.1766H136.731C136.19 22.0257 133.727 23.9861 130.06 23.9861C125.19 23.9861 122.032 20.6304 122.032 15.7624ZM133.246 14.4879C133.155 11.8454 131.801 9.94727 129.76 9.94727C127.72 9.94727 126.121 11.8454 125.813 14.4879H133.246Z" fill="#333333"/>
<path d="M150 8.06726H146.365C145.709 8.08121 145.07 8.26963 144.514 8.61264C143.958 8.95565 143.507 9.44052 143.207 10.016V8.06726H139.508V23.5015H143.207V11.3802H150V8.06726Z" fill="#333333"/>
<path d="M35.422 10.8302V8.06688H33.1957C32.811 8.03893 32.4286 8.14597 32.1159 8.36914C31.8033 8.59231 31.5804 8.91729 31.4866 9.28681V3.96667H27.7881V19.8335C27.8118 22.7021 29.3196 24 32.3668 24C33.3599 23.9957 34.3464 23.8406 35.2917 23.5401V20.7338C34.6624 20.9244 34.0079 21.0216 33.3497 21.0223C32.1024 21.0223 31.4392 20.5623 31.4392 19.1904L31.4827 10.8419L35.422 10.8302Z" fill="#333333"/>
</svg>
